# xmcd
#
# Track frame offsets:
#	150
#	14627
#	57707
#	69985
#	101659
#	105174
#	134616
#
# Disc length: 2338 seconds
#
# Revision: 1
# Processed by: cddbd v1.5.2PL0 Copyright (c) Steve Scherf et al.
# Submitted via: audiograbber 1.83.01
#
DISCID=60092007
DTITLE=Waldwind - Lohe
DYEAR=2011
DGENRE=Black Metal
TTITLE0=Intro
TTITLE1=Schlagende Hörner
TTITLE2=Lichter wirren
TTITLE3=Gen Wipfel
TTITLE4=Dämmerung
TTITLE5=Nordlicht
TTITLE6=Rote Wälder
EXTD=
EXTT0=
EXTT1=
EXTT2=
EXTT3=
EXTT4=
EXTT5=
EXTT6=
PLAYORDER=
